<?xml version="1.0" standalone="no"?><!DOCTYPE svg PUBLIC "-//W3C//DTD SVG 1.1//EN" "http://www.w3.org/Graphics/SVG/1.1/DTD/svg11.dtd"><svg t="1706240853628" class="icon" viewBox="0 0 1024 1024" version="1.1" xmlns="http://www.w3.org/2000/svg" p-id="8809" xmlns:xlink="http://www.w3.org/1999/xlink" width="200" height="200"><path d="M480 171.52l-1.28 690.56-125.44 42.24-71.68-19.84-33.28-51.2-14.72-28.8-46.08-48-48.64-68.48-9.6-78.08 19.2-42.24 23.04-25.6 1.28-12.8-44.8-44.8-8.32-60.8 25.6-57.6 10.24-6.4-13.44-44.16 0.64-38.4 12.16-27.52 44.8-28.8 19.84-19.2 16-53.12 85.76-44.8 53.12 11.52z" fill="#1297B5" p-id="8810" data-spm-anchor-id="a313x.search_index.0.i2.59f63a81eqojOF" class="selected"></path><path d="M204.8 222.72c5.12 0 9.6-3.2 12.16-8.32 18.56-46.72 46.72-76.16 83.2-87.04 77.44-23.04 170.88 42.24 171.52 42.88 5.76 3.84 13.44 2.56 17.92-3.2 3.84-5.76 2.56-13.44-3.2-17.92-4.48-3.2-104.32-72.96-193.92-46.08-44.8 13.44-78.08 47.36-99.84 102.4-2.56 6.4 0.64 14.08 7.04 16.64 1.92 0.64 3.84 0.64 5.12 0.64z" fill="#29E0F6" p-id="8811"></path><path d="M156.8 364.8c3.2 0 5.76-1.28 8.32-3.2 5.12-4.48 5.76-12.8 1.28-17.92-41.6-48.64-1.28-88.32 3.84-92.8 22.4-21.12 44.8-30.08 65.92-26.24 39.68 6.4 65.92 51.84 69.12 57.6 8.32 20.48 21.76 34.56 39.04 40.32 29.44 10.24 58.88-5.76 60.16-7.04l1.92-1.28 1.28-1.92c17.92-20.48 24.96-40.96 21.12-60.16-5.12-27.52-30.72-40.96-32-41.6l-1.28-0.64-1.92-0.64c-39.04-8.32-49.92-21.12-52.48-27.52-3.84-8.32 1.28-16.64 1.28-16.64 3.84-5.76 1.92-14.08-3.84-17.92-5.76-3.84-13.44-1.92-17.28 3.84-4.48 7.04-10.88 23.04-3.84 40.32 8.32 19.84 31.36 34.56 69.12 42.88 3.84 2.56 15.36 10.24 17.28 23.04 1.92 10.88-2.56 23.04-14.08 36.48-5.76 2.56-22.4 9.6-37.12 3.84-10.24-3.84-17.92-12.8-23.68-26.24l-0.64-1.28c-1.28-2.56-33.92-62.08-87.68-71.04-29.44-5.12-58.88 5.76-87.68 32.64-0.64 0.64-64.64 59.52-5.76 128 2.56 3.84 5.76 5.12 9.6 5.12z" fill="#29E0F6" p-id="8812" data-spm-anchor-id="a313x.search_index.0.i3.59f63a81eqojOF" class="selected"></path><path d="M166.4 538.88c3.84 0 7.04-1.28 9.6-4.48 4.48-5.12 3.84-13.44-1.28-17.92-72.96-63.36-32-122.88-30.08-125.44l0.64-1.28c30.72-55.04 106.24-34.56 113.28-32.64 63.36 27.52 37.76 114.56 37.76 115.2-1.92 7.04 1.92 14.08 8.32 16 7.04 1.92 14.08-1.92 16-8.32 11.52-38.4 16-117.76-52.48-146.56l-1.28-0.64c-35.2-10.88-110.08-16-144 43.52-19.84 28.16-37.76 96.64 34.56 158.72 3.2 3.2 5.76 3.84 8.96 3.84z" fill="#29E0F6" p-id="8813"></path><path d="M228.48 345.6c1.28 0 2.56 0 3.84-0.64 7.04-1.92 10.24-9.6 8.32-16-3.84-12.16-8.32-40.32 1.28-49.28 5.12-4.48 5.76-12.8 0.64-17.92-4.48-5.12-12.8-5.76-17.92-0.64-24.32 22.4-10.24 70.4-8.32 75.52 1.92 5.76 7.04 8.96 12.16 8.96zM357.76 815.36c1.92 0 4.48 0 6.4-0.64 19.84-2.56 37.12-14.72 51.2-37.12l1.28-2.56c0.64-1.28 12.16-34.56-5.12-60.16-10.88-16-30.72-24.32-57.6-24.32 0 0 0-1.92 0.64-1.92 19.84-38.4 35.2-122.88-46.72-171.52-2.56-1.28-49.92-26.88-102.4-11.52-33.92 10.24-61.44 35.2-81.92 73.6l-0.64 0.64c-21.76 48-29.44 154.88 95.36 218.24 6.4 3.2 14.08 0.64 17.28-5.76s0.64-14.08-5.76-17.28c-131.84-66.56-87.68-176.64-83.84-184.32 17.28-32 39.04-52.48 65.92-60.8 42.24-12.8 82.56 8.32 82.56 8.96 82.56 48.64 38.4 134.4 36.48 138.24l-0.64 1.92c-4.48 12.16-3.2 21.76 2.56 28.8s14.72 8.32 21.76 7.68c17.92 0.64 30.08 5.12 36.48 14.08 8.96 12.8 3.84 31.36 2.56 36.48-8.96 14.08-19.84 22.4-31.36 23.68-21.76 2.56-42.24-17.28-42.24-17.92-5.12-5.12-12.8-5.12-17.92 0-5.12 5.12-5.12 12.8 0 17.92 0.64 1.28 24.96 25.6 55.68 25.6z" fill="#29E0F6" p-id="8814" data-spm-anchor-id="a313x.search_index.0.i1.59f63a81eqojOF" class="selected"></path><path d="M233.6 524.8c5.76 0 10.88-3.84 12.16-8.96 1.92-6.4-1.28-13.44-7.68-15.36-5.12-3.2-16-21.76-9.6-74.24 0.64-7.04-4.48-13.44-10.88-14.08-7.04-0.64-13.44 4.48-14.08 10.88C193.28 509.44 224 522.88 230.4 524.8h3.2zM375.04 912c33.92 0 72.96-8.96 110.72-37.76 5.76-4.48 7.04-12.16 2.56-17.92-4.48-5.76-12.16-7.04-17.92-2.56-88.96 67.2-184.32 9.6-184.96 8.96-21.76-14.08-34.56-30.72-38.4-49.92-5.12-28.8 14.08-54.4 14.08-55.04 14.72-19.2 20.48-37.12 17.92-54.4-3.2-19.2-16-28.8-17.28-29.44-49.92-37.76-29.44-81.28-29.44-81.28 3.2-6.4 0.64-14.08-5.76-17.28s-14.08-0.64-17.28 5.76c-10.24 21.76-16 72.96 37.12 113.28 1.92 1.92 18.56 15.36-5.76 47.36-1.28 1.28-26.24 34.56-19.2 74.24 4.48 26.24 21.12 48.64 49.92 67.2 0.64 1.92 45.44 28.8 103.68 28.8zM412.8 675.2c3.2 0 6.4-1.28 8.96-3.84 1.28-1.28 38.4-39.04 27.52-93.44v-1.28c-0.64-1.92-12.16-41.6-33.92-63.36l-1.92-1.92c0-1.28 1.28-4.48 7.04-10.24l1.28-1.28 0.64-1.28c12.8-19.2 26.24-67.84-17.92-113.28-1.28-1.28-33.28-34.56-99.2-10.88-6.4 2.56-10.24 9.6-7.68 16.64 2.56 6.4 9.6 10.24 16.64 7.68 49.28-17.92 71.04 3.2 71.68 4.48 37.12 38.4 19.2 73.6 15.36 80-10.24 9.6-14.72 19.84-14.08 30.08 0.64 8.32 5.76 14.72 10.24 18.56 13.44 14.08 23.04 40.96 26.24 51.2 7.68 40.32-20.48 69.12-20.48 69.76-5.12 5.12-5.12 12.8 0 17.92 3.2 3.2 6.4 4.48 9.6 4.48z" fill="#29E0F6" p-id="8815"></path><path d="M555.52 177.92l1.28 690.56 126.08 42.24 71.04-19.84 33.28-51.2 14.72-28.8 46.08-48 49.28-68.48 9.6-78.08-19.2-42.24-23.68-25.6-1.28-12.8 44.8-44.8 8.96-60.8-25.6-57.6-10.88-6.4 14.08-44.16-1.28-38.4-11.52-27.52-44.8-28.8-20.48-19.2-16-53.12-85.12-44.8-53.76 11.52z" fill="#1297B5" p-id="8816"></path><path d="M830.72 229.12c1.28 0 3.2 0 4.48-0.64 6.4-2.56 9.6-10.24 7.04-16.64-21.76-54.4-55.04-88.96-99.84-102.4-89.6-26.24-189.44 43.52-193.92 46.08-5.76 3.84-7.04 12.16-3.2 17.92 3.84 5.76 12.16 7.04 17.92 3.2 0.64-0.64 94.08-65.92 171.52-42.88 36.48 10.88 64.64 40.32 83.2 87.04 3.2 5.76 7.68 8.32 12.8 8.32z" fill="#29E0F6" p-id="8817"></path><path d="M878.72 371.2c3.84 0 7.04-1.28 9.6-4.48 58.88-68.48-5.12-127.36-5.76-128-68.48-56.32-122.88-23.68-124.8-22.4-5.76 3.84-7.68 11.52-3.84 17.92 3.84 5.76 11.52 7.68 17.28 3.84 1.92-1.28 41.6-23.68 94.72 19.84 4.48 3.84 44.8 43.52 3.2 92.16-4.48 5.12-3.84 13.44 1.28 17.92 2.56 1.92 5.76 3.2 8.32 3.2z" fill="#29E0F6" p-id="8818"></path><path d="M869.12 545.28c3.2 0 5.76-1.28 8.32-3.2 72.96-62.72 53.76-131.84 33.92-159.36l-0.64-0.64c-44.16-52.48-90.88-42.24-92.8-41.6-7.04 1.92-10.88 8.32-9.6 15.36 1.92 7.04 8.32 10.88 15.36 9.6 1.92-0.64 33.92-6.4 67.2 32.64 3.84 5.12 40.96 63.36-30.08 124.8-5.12 4.48-5.76 12.8-1.28 17.92 2.56 3.2 6.4 4.48 9.6 4.48z" fill="#29E0F6" p-id="8819"></path><path d="M811.52 806.4c1.92 0 3.84-0.64 5.76-1.28 124.8-63.36 117.12-170.24 95.36-218.24C876.8 507.52 806.4 505.6 774.4 515.84c-7.04 1.92-10.24 8.96-8.32 16 1.92 7.04 8.96 10.24 16 8.32 3.2-0.64 72.32-20.48 107.52 56.96 1.92 4.48 50.56 117.12-83.84 184.96-6.4 3.2-8.96 10.88-5.76 17.28 2.56 4.48 7.04 7.04 11.52 7.04z" fill="#29E0F6" p-id="8820"></path><path d="M660.48 918.4c58.24 0 103.04-26.88 103.68-27.52 28.8-18.56 45.44-40.96 49.92-67.2 7.04-40.32-17.92-72.96-19.2-74.24-4.48-5.76-12.16-6.4-17.92-2.56-5.76 4.48-6.4 12.16-2.56 17.92 0.64 0.64 19.2 26.24 14.08 55.04-3.2 18.56-16 35.84-38.4 49.92-3.84 2.56-96 58.24-184.96-8.96-5.76-4.48-13.44-3.2-17.92 2.56-4.48 5.76-3.2 13.44 2.56 17.92 37.76 28.16 76.8 37.12 110.72 37.12zM624 250.88c0-24.32 19.84-44.16 44.16-44.16s44.16 19.84 44.16 44.16-19.84 44.16-44.16 44.16-44.16-19.84-44.16-44.16z m25.6 0c0 10.24 8.32 18.56 18.56 18.56s18.56-8.32 18.56-18.56-8.32-18.56-18.56-18.56-18.56 8.32-18.56 18.56zM732.8 462.08c0-24.32 19.84-44.16 44.16-44.16s44.16 19.84 44.16 44.16-19.84 44.16-44.16 44.16-44.16-19.84-44.16-44.16z m25.6 0c0 10.24 8.32 18.56 18.56 18.56s18.56-8.32 18.56-18.56-8.32-18.56-18.56-18.56-18.56 8.32-18.56 18.56zM572.8 590.08c0-24.32 19.84-44.16 44.16-44.16s44.16 19.84 44.16 44.16-19.84 44.16-44.16 44.16-44.16-19.84-44.16-44.16z m25.6 0c0 10.24 8.32 18.56 18.56 18.56s18.56-8.32 18.56-18.56-8.32-18.56-18.56-18.56-18.56 8.32-18.56 18.56z" fill="#29E0F6" p-id="8821"></path><path d="M572.8 807.68c0-24.32 19.84-44.16 44.16-44.16s44.16 19.84 44.16 44.16-19.84 44.16-44.16 44.16-44.16-19.84-44.16-44.16z m25.6 0c0 10.24 8.32 18.56 18.56 18.56s18.56-8.32 18.56-18.56-8.32-18.56-18.56-18.56-18.56 8.32-18.56 18.56zM720 692.48c0-24.32 19.84-44.16 44.16-44.16s44.16 19.84 44.16 44.16-19.84 44.16-44.16 44.16-44.16-19.84-44.16-44.16z m25.6 0c0 10.24 8.32 18.56 18.56 18.56s18.56-8.32 18.56-18.56-8.32-18.56-18.56-18.56-18.56 8.32-18.56 18.56zM517.12 171.52c-7.04 0-12.8-5.76-12.8-12.8v-23.04c0-7.04 5.76-12.8 12.8-12.8s12.8 5.76 12.8 12.8v23.04c0 7.04-6.4 12.8-12.8 12.8zM517.12 238.72c-7.04 0-12.8-5.76-12.8-12.8v-23.04c0-7.04 5.76-12.8 12.8-12.8s12.8 5.76 12.8 12.8v23.04c0 7.04-6.4 12.8-12.8 12.8zM517.12 305.92c-7.04 0-12.8-5.76-12.8-12.8v-23.04c0-7.04 5.76-12.8 12.8-12.8s12.8 5.76 12.8 12.8v23.04c0 7.04-6.4 12.8-12.8 12.8zM517.12 373.12c-7.04 0-12.8-5.76-12.8-12.8v-23.04c0-7.04 5.76-12.8 12.8-12.8s12.8 5.76 12.8 12.8v23.04c0 7.04-6.4 12.8-12.8 12.8zM517.12 439.68c-7.04 0-12.8-5.76-12.8-12.8v-23.04c0-7.04 5.76-12.8 12.8-12.8s12.8 5.76 12.8 12.8v23.04c0 7.04-6.4 12.8-12.8 12.8zM517.12 506.88c-7.04 0-12.8-5.76-12.8-12.8v-23.04c0-7.04 5.76-12.8 12.8-12.8s12.8 5.76 12.8 12.8v23.04c0 7.04-6.4 12.8-12.8 12.8zM517.12 574.08c-7.04 0-12.8-5.76-12.8-12.8v-23.04c0-7.04 5.76-12.8 12.8-12.8s12.8 5.76 12.8 12.8v23.04c0 7.04-6.4 12.8-12.8 12.8zM517.12 641.28c-7.04 0-12.8-5.76-12.8-12.8v-23.04c0-7.04 5.76-12.8 12.8-12.8s12.8 5.76 12.8 12.8v23.04c0 7.04-6.4 12.8-12.8 12.8zM517.12 708.48c-7.04 0-12.8-5.76-12.8-12.8v-23.04c0-7.04 5.76-12.8 12.8-12.8s12.8 5.76 12.8 12.8v23.04c0 7.04-6.4 12.8-12.8 12.8zM517.12 775.04c-7.04 0-12.8-5.76-12.8-12.8v-23.04c0-7.04 5.76-12.8 12.8-12.8s12.8 5.76 12.8 12.8v23.04c0 7.04-6.4 12.8-12.8 12.8zM517.12 842.24c-7.04 0-12.8-5.76-12.8-12.8V806.4c0-7.04 5.76-12.8 12.8-12.8s12.8 5.76 12.8 12.8v23.04c0 7.04-6.4 12.8-12.8 12.8zM517.12 909.44c-7.04 0-12.8-5.76-12.8-12.8v-23.04c0-7.04 5.76-12.8 12.8-12.8s12.8 5.76 12.8 12.8v23.04c0 7.04-6.4 12.8-12.8 12.8z" fill="#29E0F6" p-id="8822"></path><path d="M617.6 782.72c7.04 0 12.8-5.76 12.8-12.8v-140.8c0-7.04-5.76-12.8-12.8-12.8s-12.8 5.76-12.8 12.8v140.8c0 7.04 5.76 12.8 12.8 12.8zM766.72 668.8c7.04 0 12.8-5.76 12.8-12.8V589.44c0-7.04-5.76-12.8-12.8-12.8s-12.8 5.76-12.8 12.8v67.2c0 6.4 5.76 12.16 12.8 12.16zM617.6 563.2c7.04 0 12.8-5.76 12.8-12.8V465.28c0-7.04-5.76-12.8-12.8-12.8s-12.8 5.76-12.8 12.8V550.4c0 7.04 5.76 12.8 12.8 12.8z" fill="#29E0F6" p-id="8823"></path><path d="M753.92 463.36c0-7.04-5.76-12.8-12.8-12.8H618.24c-7.04 0-12.8 5.76-12.8 12.8s5.76 12.8 12.8 12.8h122.88c7.04 0 12.8-5.76 12.8-12.8zM779.52 584.96c0-7.04-5.76-12.8-12.8-12.8h-117.76c-7.04 0-12.8 5.76-12.8 12.8s5.76 12.8 12.8 12.8h117.76c7.04 0 12.8-5.76 12.8-12.8z" fill="#29E0F6" p-id="8824" data-spm-anchor-id="a313x.search_index.0.i0.59f63a81eqojOF" class="selected"></path><path d="M667.52 467.2c7.04 0 12.8-5.76 12.8-12.8V288c0-7.04-5.76-12.8-12.8-12.8s-12.8 5.76-12.8 12.8v166.4c0 7.04 5.76 12.8 12.8 12.8z" fill="#29E0F6" p-id="8825"></path></svg>